<svg width="266" height="236" viewBox="0 0 266 236" fill="none" xmlns="http://www.w3.org/2000/svg">
<g filter="url(#filter0_d_103_175)">
<rect x="4" width="258" height="228" rx="10" fill="#73E1F9"/>
<g filter="url(#filter1_d_103_175)">
<mask id="path-2-outside-1_103_175" maskUnits="userSpaceOnUse" x="11" y="8" width="244" height="212" fill="black">
<rect fill="white" x="11" y="8" width="244" height="212"/>
<path d="M254 9L212.016 51.8984L252.177 125.086L254 122.632V9ZM12 9.62586V133.968C14.2776 134.288 17.0144 134.465 19.776 134.496C25.8108 134.565 30.785 134.138 33.5792 133.866L60.3492 60.5278L12 9.62586ZM209.847 67.3456L206.268 69.8534C206.192 69.9068 203.542 71.6897 202.764 72.2148L197.372 75.7487L197.448 75.7982C194.95 77.481 194.255 77.9543 191.42 79.8605C189.981 80.8277 189.946 80.8502 188.581 81.7678C178.266 75.7641 167.073 71.1497 154.011 67.5212C137.583 72.8946 120.181 80.6702 102.803 87.9658C110.018 97.3713 118.035 100.434 126.111 100.544C135.476 100.67 145.049 96.2611 151.642 91.3214L155.404 88.5031L159.18 94.4094L217.876 140.278L240.812 123.772L209.847 67.3456ZM67.1501 68.8538L44.0853 132.038L52.5503 139.085L68.2065 119.872L69.4608 118.333L71.352 118.206C72.1146 118.154 72.8671 118.13 73.6093 118.134C78.8012 118.17 83.4429 119.629 86.9244 122.956C89.503 125.418 91.2174 128.695 92.2118 132.49L93.371 132.412C99.4693 131.999 104.964 133.361 108.943 137.162C112.923 140.964 114.856 146.697 115.237 153.301L115.273 153.895C118.547 154.565 121.478 155.961 123.861 158.237C127.841 162.039 129.774 167.771 130.155 174.375L130.256 176.092C130.581 176.204 130.903 176.324 131.222 176.454L132.255 174.884L135.036 170.658L136.466 168.483L140.193 171.358L170.406 194.662C173.693 193.785 175.651 192.419 176.741 190.762C177.833 189.104 178.385 186.65 178.075 182.996L141.847 154.907L138.127 152.023L140.765 148.034L144.156 142.879L147.883 145.754L188.726 177.254C192.012 176.377 193.972 175.012 195.062 173.354C196.152 171.697 196.704 169.25 196.396 165.603L149.421 129.521L145.689 126.653L150.984 118.573L154.717 121.44L201.701 157.53C204.99 156.652 206.951 155.286 208.042 153.628C209.134 151.968 209.686 149.513 209.374 145.853L153.226 101.977C145.775 106.759 136.244 110.59 125.997 110.452C114.006 110.289 101.179 104.085 91.7426 88.4062C91.3693 87.7862 91.1292 87.0835 91.0397 86.3498C90.9502 85.6161 91.0137 84.87 91.2255 84.1664C91.4373 83.4627 91.792 82.8194 92.2636 82.2836C92.7351 81.7479 93.3116 81.3333 93.9506 81.0704C100.567 78.3485 107.252 75.4724 113.953 72.6189L67.1511 68.8571L67.1501 68.8538ZM73.7095 128.093L49.5278 157.767C49.9991 161.481 51.0733 163.79 52.5208 165.173C53.9682 166.556 56.2194 167.422 59.6811 167.465L83.8623 137.792C83.391 134.078 82.3168 131.767 80.8693 130.384C79.4219 129.002 77.1717 128.136 73.7095 128.093ZM95.7274 142.3L68.4196 175.811C68.8903 179.525 69.9651 181.836 71.412 183.218C72.861 184.6 75.1107 185.466 78.5729 185.508L105.881 151.998C105.41 148.284 104.335 145.974 102.888 144.591C101.441 143.208 99.1902 142.342 95.7279 142.299L95.7274 142.3ZM110.644 163.374L86.4643 193.049C86.9356 196.762 88.0099 199.072 89.4573 200.455C90.9052 201.838 93.1559 202.703 96.6176 202.746L120.798 173.075C120.327 169.36 119.253 167.049 117.805 165.666C116.358 164.284 114.107 163.419 110.645 163.375L110.644 163.374ZM123.203 184.917L103.48 209.291C103.95 213.012 105.024 215.325 106.473 216.709C107.919 218.09 110.168 218.955 113.625 219L133.349 194.626C132.878 190.906 131.803 188.593 130.354 187.208C128.908 185.827 126.66 184.962 123.203 184.917ZM141.171 187.554C142.032 190.097 142.53 192.915 142.703 195.916L142.821 197.955L138.613 203.155L152.199 213.634C155.486 212.757 157.444 211.391 158.534 209.734C159.625 208.077 160.178 205.625 159.87 201.976L141.171 187.555L141.171 187.554Z"/>
</mask>
<path d="M254 9L212.016 51.8984L252.177 125.086L254 122.632V9ZM12 9.62586V133.968C14.2776 134.288 17.0144 134.465 19.776 134.496C25.8108 134.565 30.785 134.138 33.5792 133.866L60.3492 60.5278L12 9.62586ZM209.847 67.3456L206.268 69.8534C206.192 69.9068 203.542 71.6897 202.764 72.2148L197.372 75.7487L197.448 75.7982C194.95 77.481 194.255 77.9543 191.42 79.8605C189.981 80.8277 189.946 80.8502 188.581 81.7678C178.266 75.7641 167.073 71.1497 154.011 67.5212C137.583 72.8946 120.181 80.6702 102.803 87.9658C110.018 97.3713 118.035 100.434 126.111 100.544C135.476 100.67 145.049 96.2611 151.642 91.3214L155.404 88.5031L159.18 94.4094L217.876 140.278L240.812 123.772L209.847 67.3456ZM67.1501 68.8538L44.0853 132.038L52.5503 139.085L68.2065 119.872L69.4608 118.333L71.352 118.206C72.1146 118.154 72.8671 118.13 73.6093 118.134C78.8012 118.17 83.4429 119.629 86.9244 122.956C89.503 125.418 91.2174 128.695 92.2118 132.49L93.371 132.412C99.4693 131.999 104.964 133.361 108.943 137.162C112.923 140.964 114.856 146.697 115.237 153.301L115.273 153.895C118.547 154.565 121.478 155.961 123.861 158.237C127.841 162.039 129.774 167.771 130.155 174.375L130.256 176.092C130.581 176.204 130.903 176.324 131.222 176.454L132.255 174.884L135.036 170.658L136.466 168.483L140.193 171.358L170.406 194.662C173.693 193.785 175.651 192.419 176.741 190.762C177.833 189.104 178.385 186.65 178.075 182.996L141.847 154.907L138.127 152.023L140.765 148.034L144.156 142.879L147.883 145.754L188.726 177.254C192.012 176.377 193.972 175.012 195.062 173.354C196.152 171.697 196.704 169.25 196.396 165.603L149.421 129.521L145.689 126.653L150.984 118.573L154.717 121.44L201.701 157.53C204.99 156.652 206.951 155.286 208.042 153.628C209.134 151.968 209.686 149.513 209.374 145.853L153.226 101.977C145.775 106.759 136.244 110.59 125.997 110.452C114.006 110.289 101.179 104.085 91.7426 88.4062C91.3693 87.7862 91.1292 87.0835 91.0397 86.3498C90.9502 85.6161 91.0137 84.87 91.2255 84.1664C91.4373 83.4627 91.792 82.8194 92.2636 82.2836C92.7351 81.7479 93.3116 81.3333 93.9506 81.0704C100.567 78.3485 107.252 75.4724 113.953 72.6189L67.1511 68.8571L67.1501 68.8538ZM73.7095 128.093L49.5278 157.767C49.9991 161.481 51.0733 163.79 52.5208 165.173C53.9682 166.556 56.2194 167.422 59.6811 167.465L83.8623 137.792C83.391 134.078 82.3168 131.767 80.8693 130.384C79.4219 129.002 77.1717 128.136 73.7095 128.093ZM95.7274 142.3L68.4196 175.811C68.8903 179.525 69.9651 181.836 71.412 183.218C72.861 184.6 75.1107 185.466 78.5729 185.508L105.881 151.998C105.41 148.284 104.335 145.974 102.888 144.591C101.441 143.208 99.1902 142.342 95.7279 142.299L95.7274 142.3ZM110.644 163.374L86.4643 193.049C86.9356 196.762 88.0099 199.072 89.4573 200.455C90.9052 201.838 93.1559 202.703 96.6176 202.746L120.798 173.075C120.327 169.36 119.253 167.049 117.805 165.666C116.358 164.284 114.107 163.419 110.645 163.375L110.644 163.374ZM123.203 184.917L103.48 209.291C103.95 213.012 105.024 215.325 106.473 216.709C107.919 218.09 110.168 218.955 113.625 219L133.349 194.626C132.878 190.906 131.803 188.593 130.354 187.208C128.908 185.827 126.66 184.962 123.203 184.917ZM141.171 187.554C142.032 190.097 142.53 192.915 142.703 195.916L142.821 197.955L138.613 203.155L152.199 213.634C155.486 212.757 157.444 211.391 158.534 209.734C159.625 208.077 160.178 205.625 159.87 201.976L141.171 187.555L141.171 187.554Z" fill="black"/>
<path d="M254 9L212.016 51.8984L252.177 125.086L254 122.632V9ZM12 9.62586V133.968C14.2776 134.288 17.0144 134.465 19.776 134.496C25.8108 134.565 30.785 134.138 33.5792 133.866L60.3492 60.5278L12 9.62586ZM209.847 67.3456L206.268 69.8534C206.192 69.9068 203.542 71.6897 202.764 72.2148L197.372 75.7487L197.448 75.7982C194.95 77.481 194.255 77.9543 191.42 79.8605C189.981 80.8277 189.946 80.8502 188.581 81.7678C178.266 75.7641 167.073 71.1497 154.011 67.5212C137.583 72.8946 120.181 80.6702 102.803 87.9658C110.018 97.3713 118.035 100.434 126.111 100.544C135.476 100.67 145.049 96.2611 151.642 91.3214L155.404 88.5031L159.18 94.4094L217.876 140.278L240.812 123.772L209.847 67.3456ZM67.1501 68.8538L44.0853 132.038L52.5503 139.085L68.2065 119.872L69.4608 118.333L71.352 118.206C72.1146 118.154 72.8671 118.13 73.6093 118.134C78.8012 118.17 83.4429 119.629 86.9244 122.956C89.503 125.418 91.2174 128.695 92.2118 132.49L93.371 132.412C99.4693 131.999 104.964 133.361 108.943 137.162C112.923 140.964 114.856 146.697 115.237 153.301L115.273 153.895C118.547 154.565 121.478 155.961 123.861 158.237C127.841 162.039 129.774 167.771 130.155 174.375L130.256 176.092C130.581 176.204 130.903 176.324 131.222 176.454L132.255 174.884L135.036 170.658L136.466 168.483L140.193 171.358L170.406 194.662C173.693 193.785 175.651 192.419 176.741 190.762C177.833 189.104 178.385 186.65 178.075 182.996L141.847 154.907L138.127 152.023L140.765 148.034L144.156 142.879L147.883 145.754L188.726 177.254C192.012 176.377 193.972 175.012 195.062 173.354C196.152 171.697 196.704 169.25 196.396 165.603L149.421 129.521L145.689 126.653L150.984 118.573L154.717 121.44L201.701 157.53C204.99 156.652 206.951 155.286 208.042 153.628C209.134 151.968 209.686 149.513 209.374 145.853L153.226 101.977C145.775 106.759 136.244 110.59 125.997 110.452C114.006 110.289 101.179 104.085 91.7426 88.4062C91.3693 87.7862 91.1292 87.0835 91.0397 86.3498C90.9502 85.6161 91.0137 84.87 91.2255 84.1664C91.4373 83.4627 91.792 82.8194 92.2636 82.2836C92.7351 81.7479 93.3116 81.3333 93.9506 81.0704C100.567 78.3485 107.252 75.4724 113.953 72.6189L67.1511 68.8571L67.1501 68.8538ZM73.7095 128.093L49.5278 157.767C49.9991 161.481 51.0733 163.79 52.5208 165.173C53.9682 166.556 56.2194 167.422 59.6811 167.465L83.8623 137.792C83.391 134.078 82.3168 131.767 80.8693 130.384C79.4219 129.002 77.1717 128.136 73.7095 128.093ZM95.7274 142.3L68.4196 175.811C68.8903 179.525 69.9651 181.836 71.412 183.218C72.861 184.6 75.1107 185.466 78.5729 185.508L105.881 151.998C105.41 148.284 104.335 145.974 102.888 144.591C101.441 143.208 99.1902 142.342 95.7279 142.299L95.7274 142.3ZM110.644 163.374L86.4643 193.049C86.9356 196.762 88.0099 199.072 89.4573 200.455C90.9052 201.838 93.1559 202.703 96.6176 202.746L120.798 173.075C120.327 169.36 119.253 167.049 117.805 165.666C116.358 164.284 114.107 163.419 110.645 163.375L110.644 163.374ZM123.203 184.917L103.48 209.291C103.95 213.012 105.024 215.325 106.473 216.709C107.919 218.09 110.168 218.955 113.625 219L133.349 194.626C132.878 190.906 131.803 188.593 130.354 187.208C128.908 185.827 126.66 184.962 123.203 184.917ZM141.171 187.554C142.032 190.097 142.53 192.915 142.703 195.916L142.821 197.955L138.613 203.155L152.199 213.634C155.486 212.757 157.444 211.391 158.534 209.734C159.625 208.077 160.178 205.625 159.87 201.976L141.171 187.555L141.171 187.554Z" stroke="black" stroke-width="2" stroke-linejoin="round" mask="url(#path-2-outside-1_103_175)"/>
</g>
</g>
<defs>
<filter id="filter0_d_103_175" x="0" y="0" width="266" height="236" filterUnits="userSpaceOnUse" color-interpolation-filters="sRGB">
<feFlood flood-opacity="0" result="BackgroundImageFix"/>
<feColorMatrix in="SourceAlpha" type="matrix" values="0 0 0 0 0 0 0 0 0 0 0 0 0 0 0 0 0 0 127 0" result="hardAlpha"/>
<feOffset dy="4"/>
<feGaussianBlur stdDeviation="2"/>
<feComposite in2="hardAlpha" operator="out"/>
<feColorMatrix type="matrix" values="0 0 0 0 1 0 0 0 0 1 0 0 0 0 1 0 0 0 1 0"/>
<feBlend mode="normal" in2="BackgroundImageFix" result="effect1_dropShadow_103_175"/>
<feBlend mode="normal" in="SourceGraphic" in2="effect1_dropShadow_103_175" result="shape"/>
</filter>
<filter id="filter1_d_103_175" x="7" y="8" width="252" height="220" filterUnits="userSpaceOnUse" color-interpolation-filters="sRGB">
<feFlood flood-opacity="0" result="BackgroundImageFix"/>
<feColorMatrix in="SourceAlpha" type="matrix" values="0 0 0 0 0 0 0 0 0 0 0 0 0 0 0 0 0 0 127 0" result="hardAlpha"/>
<feOffset dy="4"/>
<feGaussianBlur stdDeviation="2"/>
<feComposite in2="hardAlpha" operator="out"/>
<feColorMatrix type="matrix" values="0 0 0 0 1 0 0 0 0 1 0 0 0 0 1 0 0 0 1 0"/>
<feBlend mode="normal" in2="BackgroundImageFix" result="effect1_dropShadow_103_175"/>
<feBlend mode="normal" in="SourceGraphic" in2="effect1_dropShadow_103_175" result="shape"/>
</filter>
</defs>
</svg>
