<svg width="59" height="49" viewBox="0 0 59 49" fill="none" xmlns="http://www.w3.org/2000/svg">
<path d="M9.492 41.336C7.812 41.336 6.517 40.867 5.607 39.929C4.711 38.991 4.263 37.64 4.263 35.876V22.856H1.701C1.477 22.856 1.288 22.793 1.134 22.667C0.98 22.527 0.903 22.317 0.903 22.037V20.546L4.389 20.105L5.25 13.532C5.292 13.322 5.383 13.154 5.523 13.028C5.677 12.888 5.873 12.818 6.111 12.818H8.001V20.147H14.154V22.856H8.001V35.624C8.001 36.52 8.218 37.185 8.652 37.619C9.086 38.053 9.646 38.27 10.332 38.27C10.724 38.27 11.06 38.221 11.34 38.123C11.634 38.011 11.886 37.892 12.096 37.766C12.306 37.64 12.481 37.528 12.621 37.43C12.775 37.318 12.908 37.262 13.02 37.262C13.216 37.262 13.391 37.381 13.545 37.619L14.637 39.404C13.993 40.006 13.216 40.482 12.306 40.832C11.396 41.168 10.458 41.336 9.492 41.336Z" fill="#73E1F9"/>
<path d="M23.312 37.496C22.7413 37.5227 22.2613 37.5733 21.872 37.648C21.4827 37.7173 21.1707 37.808 20.936 37.92C20.7013 38.032 20.5333 38.1627 20.432 38.312C20.3307 38.4613 20.28 38.624 20.28 38.8C20.28 39.1467 20.3813 39.3947 20.584 39.544C20.792 39.6933 21.0613 39.768 21.392 39.768C21.7973 39.768 22.1467 39.696 22.44 39.552C22.7387 39.4027 23.0293 39.1787 23.312 38.88V37.496ZM18.784 33.936C19.728 33.072 20.864 32.64 22.192 32.64C22.672 32.64 23.1013 32.72 23.48 32.88C23.8587 33.0347 24.1787 33.2533 24.44 33.536C24.7013 33.8133 24.8987 34.1467 25.032 34.536C25.1707 34.9253 25.24 35.352 25.24 35.816V41H24.344C24.1573 41 24.0133 40.9733 23.912 40.92C23.8107 40.8613 23.7307 40.7467 23.672 40.576L23.496 39.984C23.288 40.1707 23.0853 40.336 22.888 40.48C22.6907 40.6187 22.4853 40.736 22.272 40.832C22.0587 40.928 21.8293 41 21.584 41.048C21.344 41.1013 21.0773 41.128 20.784 41.128C20.4373 41.128 20.1173 41.0827 19.824 40.992C19.5307 40.896 19.2773 40.7547 19.064 40.568C18.8507 40.3813 18.6853 40.1493 18.568 39.872C18.4507 39.5947 18.392 39.272 18.392 38.904C18.392 38.696 18.4267 38.4907 18.496 38.288C18.5653 38.08 18.6773 37.8827 18.832 37.696C18.992 37.5093 19.1973 37.3333 19.448 37.168C19.6987 37.0027 20.0053 36.8587 20.368 36.736C20.736 36.6133 21.1627 36.5147 21.648 36.44C22.1333 36.36 22.688 36.312 23.312 36.296V35.816C23.312 35.2667 23.1947 34.8613 22.96 34.6C22.7253 34.3333 22.3867 34.2 21.944 34.2C21.624 34.2 21.3573 34.2373 21.144 34.312C20.936 34.3867 20.752 34.472 20.592 34.568C20.432 34.6587 20.2853 34.7413 20.152 34.816C20.024 34.8907 19.88 34.928 19.72 34.928C19.5813 34.928 19.464 34.8933 19.368 34.824C19.272 34.7493 19.1947 34.664 19.136 34.568L18.784 33.936ZM29.101 29.112V41H27.125V29.112H29.101ZM36.3578 35.952C36.3578 35.696 36.3204 35.456 36.2458 35.232C36.1764 35.0027 36.0698 34.8027 35.9258 34.632C35.7818 34.4613 35.5978 34.328 35.3738 34.232C35.1551 34.1307 34.8991 34.08 34.6058 34.08C34.0351 34.08 33.5844 34.2427 33.2538 34.568C32.9284 34.8933 32.7204 35.3547 32.6298 35.952H36.3578ZM32.5898 37.144C32.6218 37.5653 32.6964 37.9307 32.8138 38.24C32.9311 38.544 33.0858 38.7973 33.2778 39C33.4698 39.1973 33.6964 39.3467 33.9578 39.448C34.2244 39.544 34.5178 39.592 34.8378 39.592C35.1578 39.592 35.4324 39.5547 35.6618 39.48C35.8964 39.4053 36.0991 39.3227 36.2698 39.232C36.4458 39.1413 36.5978 39.0587 36.7258 38.984C36.8591 38.9093 36.9871 38.872 37.1098 38.872C37.2751 38.872 37.3978 38.9333 37.4778 39.056L38.0458 39.776C37.8271 40.032 37.5818 40.248 37.3098 40.424C37.0378 40.5947 36.7524 40.7333 36.4538 40.84C36.1604 40.9413 35.8591 41.0133 35.5498 41.056C35.2458 41.0987 34.9498 41.12 34.6618 41.12C34.0911 41.12 33.5604 41.0267 33.0698 40.84C32.5791 40.648 32.1524 40.368 31.7898 40C31.4271 39.6267 31.1418 39.168 30.9338 38.624C30.7258 38.0747 30.6217 37.44 30.6217 36.72C30.6217 36.16 30.7124 35.6347 30.8938 35.144C31.0751 34.648 31.3338 34.2187 31.6698 33.856C32.0111 33.488 32.4244 33.1973 32.9098 32.984C33.4004 32.7707 33.9524 32.664 34.5658 32.664C35.0831 32.664 35.5604 32.7467 35.9978 32.912C36.4351 33.0773 36.8111 33.32 37.1258 33.64C37.4404 33.9547 37.6858 34.344 37.8618 34.808C38.0431 35.2667 38.1337 35.792 38.1337 36.384C38.1337 36.6827 38.1018 36.8853 38.0378 36.992C37.9738 37.0933 37.8511 37.144 37.6698 37.144H32.5898ZM41.4646 33.8C41.63 33.6347 41.8033 33.4827 41.9846 33.344C42.1713 33.2 42.366 33.08 42.5686 32.984C42.7766 32.8827 42.998 32.8053 43.2326 32.752C43.4673 32.6933 43.7233 32.664 44.0006 32.664C44.4486 32.664 44.846 32.7413 45.1926 32.896C45.5393 33.0453 45.8273 33.2587 46.0566 33.536C46.2913 33.808 46.4673 34.136 46.5846 34.52C46.7073 34.8987 46.7686 35.3173 46.7686 35.776V41H44.7926V35.776C44.7926 35.2747 44.678 34.888 44.4486 34.616C44.2193 34.3387 43.87 34.2 43.4006 34.2C43.0593 34.2 42.7393 34.2773 42.4406 34.432C42.142 34.5867 41.8593 34.7973 41.5926 35.064V41H39.6166V32.792H40.8246C41.0806 32.792 41.2486 32.912 41.3286 33.152L41.4646 33.8ZM51.2745 41.128C50.5598 41.128 50.0105 40.928 49.6265 40.528C49.2478 40.1227 49.0585 39.5653 49.0585 38.856V34.272H48.2185C48.1118 34.272 48.0212 34.2373 47.9465 34.168C47.8718 34.0987 47.8345 33.9947 47.8345 33.856V33.072L49.1545 32.856L49.5705 30.616C49.5972 30.5093 49.6478 30.4267 49.7225 30.368C49.7972 30.3093 49.8932 30.28 50.0105 30.28H51.0345V32.864H53.2265V34.272H51.0345V38.72C51.0345 38.976 51.0958 39.176 51.2185 39.32C51.3465 39.464 51.5198 39.536 51.7385 39.536C51.8612 39.536 51.9625 39.5227 52.0425 39.496C52.1278 39.464 52.1998 39.432 52.2585 39.4C52.3225 39.368 52.3785 39.3387 52.4265 39.312C52.4745 39.28 52.5225 39.264 52.5705 39.264C52.6292 39.264 52.6772 39.28 52.7145 39.312C52.7518 39.3387 52.7918 39.3813 52.8345 39.44L53.4265 40.4C53.1385 40.64 52.8078 40.8213 52.4345 40.944C52.0612 41.0667 51.6745 41.128 51.2745 41.128Z" fill="#004352"/>
<path d="M21.195 19.368C21.483 18.816 21.825 18.384 22.221 18.072C22.617 17.754 23.085 17.595 23.625 17.595C24.051 17.595 24.393 17.688 24.651 17.874L24.507 19.539C24.477 19.647 24.432 19.725 24.372 19.773C24.318 19.815 24.243 19.836 24.147 19.836C24.057 19.836 23.922 19.821 23.742 19.791C23.568 19.761 23.397 19.746 23.229 19.746C22.983 19.746 22.764 19.782 22.572 19.854C22.38 19.926 22.206 20.031 22.05 20.169C21.9 20.301 21.765 20.463 21.645 20.655C21.531 20.847 21.423 21.066 21.321 21.312V27H19.098V17.766H20.403C20.631 17.766 20.79 17.808 20.88 17.892C20.97 17.97 21.03 18.114 21.06 18.324L21.195 19.368ZM30.5678 23.058C29.9258 23.088 29.3858 23.145 28.9478 23.229C28.5098 23.307 28.1588 23.409 27.8948 23.535C27.6308 23.661 27.4418 23.808 27.3278 23.976C27.2138 24.144 27.1568 24.327 27.1568 24.525C27.1568 24.915 27.2708 25.194 27.4988 25.362C27.7328 25.53 28.0358 25.614 28.4078 25.614C28.8638 25.614 29.2568 25.533 29.5868 25.371C29.9228 25.203 30.2498 24.951 30.5678 24.615V23.058ZM25.4738 19.053C26.5358 18.081 27.8138 17.595 29.3078 17.595C29.8478 17.595 30.3308 17.685 30.7568 17.865C31.1828 18.039 31.5428 18.285 31.8368 18.603C32.1308 18.915 32.3528 19.29 32.5028 19.728C32.6588 20.166 32.7368 20.646 32.7368 21.168V27H31.7288C31.5188 27 31.3568 26.97 31.2428 26.91C31.1288 26.844 31.0388 26.715 30.9728 26.523L30.7748 25.857C30.5408 26.067 30.3128 26.253 30.0908 26.415C29.8688 26.571 29.6378 26.703 29.3978 26.811C29.1578 26.919 28.8998 27 28.6238 27.054C28.3538 27.114 28.0538 27.144 27.7238 27.144C27.3338 27.144 26.9738 27.093 26.6438 26.991C26.3138 26.883 26.0288 26.724 25.7888 26.514C25.5488 26.304 25.3628 26.043 25.2308 25.731C25.0988 25.419 25.0328 25.056 25.0328 24.642C25.0328 24.408 25.0718 24.177 25.1498 23.949C25.2278 23.715 25.3538 23.493 25.5278 23.283C25.7078 23.073 25.9388 22.875 26.2208 22.689C26.5028 22.503 26.8478 22.341 27.2558 22.203C27.6698 22.065 28.1498 21.954 28.6958 21.87C29.2418 21.78 29.8658 21.726 30.5678 21.708V21.168C30.5678 20.55 30.4358 20.094 30.1718 19.8C29.9078 19.5 29.5268 19.35 29.0288 19.35C28.6688 19.35 28.3688 19.392 28.1288 19.476C27.8948 19.56 27.6878 19.656 27.5078 19.764C27.3278 19.866 27.1628 19.959 27.0128 20.043C26.8688 20.127 26.7068 20.169 26.5268 20.169C26.3708 20.169 26.2388 20.13 26.1308 20.052C26.0228 19.968 25.9358 19.872 25.8698 19.764L25.4738 19.053ZM40.6264 20.124C40.3744 19.818 40.0984 19.602 39.7984 19.476C39.5044 19.35 39.1864 19.287 38.8444 19.287C38.5084 19.287 38.2054 19.35 37.9354 19.476C37.6654 19.602 37.4344 19.794 37.2424 20.052C37.0504 20.304 36.9034 20.628 36.8014 21.024C36.6994 21.414 36.6484 21.876 36.6484 22.41C36.6484 22.95 36.6904 23.409 36.7744 23.787C36.8644 24.159 36.9904 24.465 37.1524 24.705C37.3144 24.939 37.5124 25.11 37.7464 25.218C37.9804 25.32 38.2414 25.371 38.5294 25.371C38.9914 25.371 39.3844 25.275 39.7084 25.083C40.0324 24.891 40.3384 24.618 40.6264 24.264V20.124ZM42.8494 13.626V27H41.4904C41.1964 27 41.0104 26.865 40.9324 26.595L40.7434 25.704C40.3714 26.13 39.9424 26.475 39.4564 26.739C38.9764 27.003 38.4154 27.135 37.7734 27.135C37.2694 27.135 36.8074 27.03 36.3874 26.82C35.9674 26.61 35.6044 26.307 35.2984 25.911C34.9984 25.509 34.7644 25.014 34.5964 24.426C34.4344 23.838 34.3534 23.166 34.3534 22.41C34.3534 21.726 34.4464 21.09 34.6324 20.502C34.8184 19.914 35.0854 19.404 35.4334 18.972C35.7814 18.54 36.1984 18.204 36.6844 17.964C37.1704 17.718 37.7164 17.595 38.3224 17.595C38.8384 17.595 39.2794 17.676 39.6454 17.838C40.0114 18 40.3384 18.219 40.6264 18.495V13.626H42.8494ZM50.9923 21.321C50.9923 21.033 50.9503 20.763 50.8663 20.511C50.7883 20.253 50.6683 20.028 50.5063 19.836C50.3443 19.644 50.1373 19.494 49.8853 19.386C49.6393 19.272 49.3513 19.215 49.0213 19.215C48.3793 19.215 47.8723 19.398 47.5003 19.764C47.1343 20.13 46.9003 20.649 46.7983 21.321H50.9923ZM46.7533 22.662C46.7893 23.136 46.8733 23.547 47.0053 23.895C47.1373 24.237 47.3113 24.522 47.5273 24.75C47.7433 24.972 47.9983 25.14 48.2923 25.254C48.5923 25.362 48.9223 25.416 49.2823 25.416C49.6423 25.416 49.9513 25.374 50.2093 25.29C50.4733 25.206 50.7013 25.113 50.8933 25.011C51.0913 24.909 51.2623 24.816 51.4063 24.732C51.5563 24.648 51.7003 24.606 51.8383 24.606C52.0243 24.606 52.1623 24.675 52.2523 24.813L52.8913 25.623C52.6453 25.911 52.3693 26.154 52.0633 26.352C51.7573 26.544 51.4363 26.7 51.1003 26.82C50.7703 26.934 50.4313 27.015 50.0833 27.063C49.7413 27.111 49.4083 27.135 49.0843 27.135C48.4423 27.135 47.8453 27.03 47.2933 26.82C46.7413 26.604 46.2613 26.289 45.8533 25.875C45.4453 25.455 45.1243 24.939 44.8903 24.327C44.6563 23.709 44.5393 22.995 44.5393 22.185C44.5393 21.555 44.6413 20.964 44.8453 20.412C45.0493 19.854 45.3403 19.371 45.7183 18.963C46.1023 18.549 46.5673 18.222 47.1133 17.982C47.6653 17.742 48.2863 17.622 48.9763 17.622C49.5583 17.622 50.0953 17.715 50.5873 17.901C51.0793 18.087 51.5023 18.36 51.8563 18.72C52.2103 19.074 52.4863 19.512 52.6843 20.034C52.8883 20.55 52.9903 21.141 52.9903 21.807C52.9903 22.143 52.9543 22.371 52.8823 22.491C52.8103 22.605 52.6723 22.662 52.4683 22.662H46.7533Z" fill="#73E1F9"/>
</svg>
